<!-- Derived from Lucide "settings" (stroke outlined to fill). ISC - Copyright (c) 2026 Lucide Icons and Contributors -->
<svg xmlns="http://www.w3.org/2000/svg" width="24" height="24" viewBox="0 0 24 24" version="1.1">
	<path d="M 12 1 C 10.939 1, 9.589 1.900, 9 3 C 8.368 4.180, 6.906 5, 5.433 5 C 4.047 5, 2.659 5.726, 2.311 6.632 C 1.966 7.530, 2.209 9.105, 2.851 10.132 C 3.739 11.555, 3.739 12.445, 2.851 13.868 C 2.209 14.895, 1.966 16.470, 2.311 17.368 C 2.659 18.274, 4.047 19, 5.433 19 C 6.906 19, 8.368 19.820, 9 21 C 9.589 22.100, 10.939 23, 12 23 C 13.061 23, 14.411 22.100, 15 21 C 15.632 19.820, 17.094 19, 18.567 19 C 19.953 19, 21.341 18.274, 21.689 17.368 C 22.034 16.470, 21.791 14.895, 21.149 13.868 C 20.261 12.445, 20.261 11.555, 21.149 10.132 C 21.791 9.105, 22.034 7.530, 21.689 6.632 C 21.341 5.726, 19.953 5, 18.567 5 C 17.094 5, 15.632 4.180, 15 3 C 14.411 1.900, 13.061 1, 12 1 M 12 3 C 11.715 3, 10.919 3.900, 10.232 5 C 9.526 6.131, 7.900 7, 6.492 7 C 5.121 7, 4 7.231, 4 7.514 C 4 7.796, 4.558 8.921, 5.241 10.014 C 6.228 11.595, 6.228 12.405, 5.241 13.986 C 4.558 15.079, 4 16.204, 4 16.486 C 4 16.769, 5.099 17, 6.443 17 C 7.835 17, 9.557 17.957, 10.443 19.223 L 12 21.445 13.557 19.223 C 14.443 17.957, 16.165 17, 17.557 17 C 18.901 17, 20 16.769, 20 16.486 C 20 16.204, 19.442 15.079, 18.759 13.986 C 17.772 12.405, 17.772 11.595, 18.759 10.014 C 19.442 8.921, 20 7.796, 20 7.514 C 20 7.231, 18.879 7, 17.508 7 C 16.100 7, 14.474 6.131, 13.768 5 C 13.081 3.900, 12.285 3, 12 3 M 12 8 C 11.035 8, 9.703 8.653, 9.040 9.452 C 8.377 10.251, 7.985 11.665, 8.167 12.595 C 8.350 13.525, 9.287 14.782, 10.250 15.388 C 11.525 16.190, 12.475 16.190, 13.750 15.388 C 14.713 14.782, 15.650 13.525, 15.833 12.595 C 16.015 11.665, 15.623 10.251, 14.960 9.452 C 14.297 8.653, 12.965 8, 12 8 M 12 10 C 11.515 10, 10.816 10.489, 10.446 11.087 C 10.077 11.685, 10.275 12.675, 10.887 13.287 C 11.704 14.104, 12.296 14.104, 13.113 13.287 C 13.725 12.675, 13.923 11.685, 13.554 11.087 C 13.184 10.489, 12.485 10, 12 10" stroke="none" fill="#000" fill-rule="evenodd"/>
</svg>
