<!-- Derived from Lucide "unlink" (stroke outlined to fill). ISC - Copyright (c) 2026 Lucide Icons and Contributors -->
<svg xmlns="http://www.w3.org/2000/svg" width="24" height="24" viewBox="0 0 24 24" version="1.1">
	<path d="M7.9 1.043C7.681 1.081 7.53 1.137 7.438 1.215 7.287 1.343 7.28 1.35 7.17 1.521 7.077 1.666 7.067 1.697 7.053 1.896 7.044 2.015 7.043 2.844 7.05 3.738L7.063 5.363 7.128 5.45C7.165 5.498 7.212 5.573 7.234 5.617 7.276 5.7 7.533 5.91 7.646 5.954 7.749 5.993 8.147 6.009 8.304 5.979 8.41 5.959 8.485 5.923 8.596 5.838 8.761 5.713 8.875 5.59 8.875 5.538 8.875 5.519 8.906 5.467 8.944 5.422L9.013 5.34 9.013 3.526 9.013 1.713 8.925 1.564C8.755 1.275 8.554 1.123 8.266 1.065 8.07 1.025 8.019 1.022 7.9 1.043M16.168 1.127C16.089 1.139 15.952 1.17 15.865 1.197 15.778 1.224 15.618 1.259 15.51 1.274 15.395 1.29 15.252 1.331 15.163 1.373 15.08 1.413 14.961 1.452 14.897 1.461 14.834 1.47 14.745 1.504 14.699 1.538 14.654 1.571 14.554 1.617 14.477 1.639 14.4 1.661 14.315 1.7 14.287 1.726 14.259 1.752 14.194 1.79 14.142 1.812 14.09 1.834 14.001 1.885 13.945 1.926 13.888 1.967 13.828 2 13.811 2 13.793 2 13.742 2.031 13.698 2.069 13.653 2.107 13.58 2.16 13.536 2.188 13.4 2.272 13.245 2.394 13.065 2.556 12.751 2.84 11.072 4.511 11.011 4.6 10.978 4.648 10.928 4.716 10.901 4.75 10.798 4.88 10.789 5.47 10.887 5.642 10.97 5.788 11.071 5.91 11.165 5.978 11.219 6.017 11.287 6.067 11.317 6.089 11.347 6.111 11.468 6.145 11.586 6.166 11.775 6.198 11.825 6.198 12.016 6.165 12.175 6.138 12.248 6.112 12.297 6.067 12.333 6.034 12.382 5.996 12.407 5.983 12.431 5.971 12.83 5.582 13.294 5.121 14.059 4.359 14.665 3.8 14.725 3.8 14.738 3.8 14.787 3.766 14.834 3.725 14.881 3.684 14.967 3.633 15.024 3.613 15.082 3.592 15.161 3.549 15.2 3.516 15.24 3.483 15.314 3.448 15.367 3.439 15.419 3.429 15.519 3.389 15.588 3.351 15.656 3.312 15.787 3.268 15.878 3.253 15.968 3.237 16.109 3.202 16.19 3.174 16.532 3.056 17.485 3.056 17.803 3.173 17.877 3.2 18.016 3.236 18.113 3.251 18.209 3.267 18.332 3.306 18.387 3.337 18.443 3.369 18.547 3.412 18.619 3.433 18.691 3.455 18.786 3.499 18.831 3.533 18.876 3.566 18.951 3.606 18.999 3.622 19.046 3.638 19.111 3.675 19.143 3.705 19.175 3.735 19.238 3.782 19.284 3.811 19.593 4.001 20.114 4.511 20.231 4.738 20.252 4.779 20.293 4.833 20.32 4.858 20.348 4.883 20.385 4.939 20.403 4.983 20.42 5.027 20.465 5.102 20.502 5.15 20.539 5.198 20.577 5.271 20.586 5.313 20.595 5.354 20.632 5.432 20.667 5.486 20.703 5.54 20.747 5.652 20.767 5.736 20.786 5.819 20.829 5.956 20.863 6.041 20.951 6.26 20.985 6.691 20.966 7.325 20.95 7.863 20.934 7.968 20.839 8.213 20.806 8.295 20.772 8.41 20.763 8.468 20.753 8.527 20.717 8.616 20.682 8.668 20.648 8.719 20.603 8.813 20.584 8.878 20.565 8.942 20.531 9.009 20.508 9.028 20.486 9.047 20.442 9.119 20.411 9.189 20.38 9.258 20.336 9.33 20.314 9.349 20.291 9.368 20.254 9.418 20.233 9.459 20.212 9.5 20.159 9.57 20.116 9.614 20.073 9.658 19.998 9.741 19.95 9.799 19.902 9.856 19.468 10.299 18.986 10.783 18.149 11.623 18.104 11.673 18.004 11.872 17.907 12.068 17.9 12.094 17.9 12.292 17.9 12.489 17.907 12.518 18 12.707 18.137 12.983 18.294 13.123 18.583 13.225 18.848 13.318 18.957 13.319 19.221 13.227 19.399 13.165 19.458 13.128 19.617 12.983 19.72 12.889 19.818 12.797 19.834 12.779 19.862 12.746 19.941 12.667 20.004 12.606 20.104 12.513 20.159 12.458 20.196 12.415 20.219 12.389 20.259 12.35 20.285 12.328 20.329 12.291 20.371 12.247 20.459 12.15 20.477 12.129 20.514 12.094 20.54 12.072 20.566 12.05 20.606 12.011 20.629 11.985 20.652 11.959 20.697 11.912 20.729 11.881 21.123 11.503 21.357 11.259 21.562 11.013 21.596 10.971 21.662 10.893 21.708 10.838 21.754 10.783 21.823 10.684 21.861 10.619 21.899 10.553 21.941 10.5 21.954 10.5 21.967 10.5 21.993 10.463 22.012 10.419 22.03 10.374 22.079 10.295 22.121 10.242 22.163 10.19 22.204 10.116 22.212 10.077 22.221 10.038 22.255 9.981 22.288 9.949 22.321 9.918 22.366 9.834 22.386 9.763 22.407 9.691 22.446 9.605 22.472 9.572 22.499 9.538 22.54 9.443 22.564 9.361 22.587 9.279 22.633 9.162 22.664 9.1 22.696 9.038 22.735 8.915 22.75 8.827 22.766 8.738 22.807 8.592 22.841 8.502 22.891 8.37 22.913 8.231 22.951 7.8 23.011 7.129 23.011 7.038 22.949 6.367 22.909 5.929 22.888 5.794 22.84 5.68 22.808 5.601 22.768 5.459 22.751 5.363 22.735 5.266 22.695 5.141 22.661 5.083 22.628 5.026 22.588 4.919 22.572 4.846 22.557 4.773 22.517 4.676 22.484 4.631 22.45 4.587 22.408 4.501 22.39 4.44 22.371 4.38 22.328 4.292 22.294 4.246 22.259 4.2 22.223 4.134 22.213 4.1 22.203 4.066 22.169 4.009 22.137 3.975 22.106 3.941 22.055 3.862 22.024 3.8 21.956 3.663 21.919 3.615 21.453 3.075 21.316 2.917 21.128 2.723 21.034 2.644 20.749 2.404 20.674 2.34 20.609 2.281 20.576 2.25 20.512 2.207 20.468 2.184 20.424 2.162 20.351 2.111 20.305 2.072 20.26 2.032 20.207 2 20.188 2 20.168 2 20.115 1.968 20.07 1.929 20.024 1.889 19.947 1.844 19.898 1.828 19.848 1.812 19.77 1.771 19.723 1.736 19.676 1.702 19.582 1.657 19.514 1.637 19.446 1.616 19.35 1.572 19.301 1.539 19.252 1.506 19.149 1.467 19.071 1.453 18.992 1.439 18.874 1.399 18.808 1.364 18.735 1.326 18.608 1.291 18.487 1.274 18.377 1.26 18.226 1.227 18.15 1.201 18.074 1.175 17.925 1.142 17.817 1.127 17.591 1.096 16.383 1.096 16.168 1.127M1.857 7.051C1.707 7.067 1.651 7.087 1.52 7.171 1.35 7.28 1.344 7.286 1.212 7.441 1.14 7.525 1.113 7.591 1.069 7.785 1.015 8.022 1.015 8.027 1.06 8.244 1.084 8.364 1.122 8.491 1.144 8.525 1.245 8.684 1.375 8.811 1.51 8.883 1.591 8.927 1.681 8.977 1.71 8.994 1.751 9.018 2.159 9.023 3.551 9.019L5.34 9.013 5.422 8.944C5.467 8.906 5.519 8.875 5.538 8.875 5.59 8.875 5.713 8.761 5.838 8.596 5.923 8.485 5.959 8.41 5.979 8.304 6.009 8.147 5.993 7.749 5.954 7.646 5.91 7.533 5.7 7.276 5.617 7.234 5.573 7.212 5.5 7.166 5.454 7.131 5.382 7.078 5.33 7.066 5.104 7.048 4.774 7.023 2.104 7.025 1.857 7.051M4.978 10.826C4.891 10.838 4.795 10.865 4.766 10.887 4.737 10.908 4.67 10.954 4.619 10.988 4.567 11.022 4.117 11.46 3.619 11.961 2.727 12.856 2.637 12.95 2.438 13.186 2.382 13.251 2.312 13.332 2.281 13.366 2.25 13.4 2.207 13.463 2.184 13.507 2.162 13.551 2.111 13.624 2.072 13.67 2.032 13.715 2 13.768 2 13.788 2 13.807 1.968 13.86 1.929 13.905 1.89 13.951 1.839 14.037 1.815 14.098 1.791 14.159 1.746 14.24 1.714 14.278 1.682 14.316 1.648 14.389 1.639 14.442 1.629 14.495 1.593 14.58 1.557 14.631 1.522 14.683 1.477 14.794 1.458 14.878 1.438 14.963 1.395 15.086 1.361 15.152 1.328 15.219 1.288 15.355 1.274 15.455 1.26 15.555 1.22 15.725 1.186 15.834 1.042 16.291 1.062 17.982 1.215 18.229 1.223 18.241 1.25 18.369 1.275 18.514 1.301 18.661 1.344 18.812 1.373 18.859 1.401 18.904 1.437 19.002 1.453 19.077 1.469 19.151 1.52 19.283 1.566 19.371 1.612 19.458 1.65 19.55 1.65 19.575 1.65 19.6 1.678 19.655 1.713 19.696 1.747 19.737 1.792 19.818 1.813 19.876 1.833 19.933 1.884 20.019 1.925 20.066 1.966 20.113 2 20.166 2 20.184 2 20.253 2.44 20.815 2.79 21.192 2.844 21.25 2.994 21.388 3.125 21.498 3.256 21.609 3.396 21.729 3.438 21.764 3.522 21.837 3.635 21.916 3.8 22.016 3.862 22.054 3.944 22.11 3.983 22.142 4.022 22.174 4.069 22.2 4.087 22.2 4.105 22.2 4.176 22.239 4.244 22.286 4.313 22.333 4.41 22.379 4.459 22.389 4.509 22.398 4.598 22.437 4.656 22.475 4.715 22.513 4.827 22.563 4.906 22.585 4.985 22.608 5.086 22.648 5.131 22.674 5.176 22.7 5.291 22.735 5.388 22.752 5.484 22.768 5.635 22.808 5.724 22.842 5.879 22.899 6.139 22.93 6.925 22.983 7.014 22.989 7.359 22.973 7.691 22.948 8.21 22.909 8.316 22.894 8.447 22.841 8.53 22.807 8.68 22.766 8.78 22.751 8.883 22.735 9.007 22.696 9.066 22.662 9.124 22.628 9.231 22.588 9.304 22.573 9.377 22.558 9.477 22.518 9.526 22.485 9.575 22.453 9.67 22.407 9.738 22.385 9.807 22.362 9.891 22.318 9.925 22.287 9.959 22.256 10.029 22.218 10.079 22.202 10.13 22.186 10.185 22.155 10.203 22.134 10.22 22.113 10.288 22.069 10.353 22.036 10.418 22.003 10.479 21.964 10.488 21.949 10.497 21.935 10.551 21.893 10.608 21.857 10.723 21.785 10.862 21.678 10.989 21.563 11.035 21.521 11.125 21.443 11.189 21.388 11.253 21.332 11.323 21.27 11.344 21.248 11.506 21.081 12.18 20.404 12.217 20.371 12.242 20.349 12.287 20.304 12.317 20.271 12.346 20.239 12.386 20.198 12.404 20.181 12.439 20.148 12.572 20.015 12.609 19.977 12.635 19.95 12.711 19.876 12.769 19.821 12.807 19.785 12.859 19.732 12.949 19.638 13.105 19.474 13.159 19.384 13.218 19.195 13.253 19.081 13.283 18.943 13.284 18.887 13.288 18.726 13.157 18.357 13.059 18.254 13.013 18.205 12.975 18.156 12.975 18.145 12.975 18.135 12.916 18.096 12.845 18.06 12.773 18.024 12.683 17.97 12.643 17.941 12.579 17.894 12.537 17.887 12.291 17.887 12.018 17.887 12.008 17.889 11.885 17.969 11.815 18.013 11.744 18.05 11.727 18.05 11.71 18.05 11.653 18.092 11.601 18.144 11.549 18.195 11.485 18.256 11.459 18.278 11.434 18.3 11.394 18.339 11.371 18.365 11.349 18.391 11.304 18.437 11.271 18.467 11.239 18.496 11.198 18.536 11.181 18.554 11.14 18.597 11.007 18.73 10.973 18.762 10.958 18.776 10.921 18.814 10.892 18.846 10.862 18.879 10.816 18.924 10.79 18.946 10.764 18.969 10.725 19.009 10.703 19.035 10.681 19.061 10.641 19.1 10.615 19.122 10.573 19.158 10.531 19.2 10.459 19.278 10.447 19.291 10.409 19.329 10.375 19.362 10.341 19.396 10.294 19.442 10.272 19.465 10.25 19.488 10.21 19.526 10.184 19.549 10.159 19.573 10.119 19.614 10.096 19.64 10.058 19.684 9.983 19.758 9.904 19.831 9.885 19.849 9.828 19.905 9.778 19.956 9.728 20.008 9.673 20.05 9.656 20.05 9.64 20.05 9.607 20.079 9.584 20.114 9.561 20.149 9.501 20.199 9.451 20.225 9.4 20.25 9.343 20.291 9.324 20.314 9.304 20.338 9.239 20.378 9.178 20.404 9.118 20.43 9.037 20.478 8.997 20.511 8.958 20.544 8.889 20.578 8.844 20.588 8.799 20.597 8.712 20.637 8.65 20.675 8.588 20.714 8.487 20.753 8.425 20.763 8.363 20.772 8.244 20.807 8.161 20.84 7.943 20.926 7.788 20.949 7.325 20.966 6.816 20.984 6.305 20.946 6.107 20.874 6.027 20.845 5.881 20.802 5.781 20.777 5.681 20.752 5.557 20.703 5.506 20.668 5.455 20.633 5.377 20.597 5.334 20.588 5.29 20.579 5.2 20.533 5.134 20.486 5.067 20.439 4.999 20.4 4.982 20.4 4.965 20.4 4.915 20.368 4.87 20.329 4.824 20.289 4.759 20.243 4.725 20.225 4.522 20.121 3.993 19.578 3.813 19.288 3.785 19.244 3.732 19.172 3.694 19.127 3.656 19.083 3.625 19.033 3.625 19.016 3.625 18.999 3.586 18.926 3.539 18.852 3.491 18.778 3.445 18.683 3.436 18.64 3.427 18.597 3.388 18.506 3.35 18.438 3.312 18.369 3.268 18.236 3.252 18.142 3.236 18.048 3.202 17.919 3.177 17.854 3.037 17.5 3.042 16.511 3.186 16.088 3.219 15.991 3.253 15.853 3.262 15.781 3.272 15.709 3.306 15.612 3.337 15.565 3.369 15.518 3.413 15.419 3.435 15.344 3.456 15.269 3.497 15.179 3.525 15.143 3.553 15.107 3.594 15.035 3.616 14.983 3.638 14.931 3.683 14.854 3.717 14.813 3.751 14.771 3.803 14.702 3.833 14.658 3.994 14.423 4.177 14.226 5.036 13.366 5.552 12.848 5.975 12.413 5.975 12.4 5.975 12.387 6.009 12.338 6.05 12.291 6.149 12.178 6.185 11.986 6.166 11.678 6.155 11.504 6.138 11.424 6.101 11.366 6.073 11.323 6.03 11.255 6.006 11.214 5.903 11.042 5.642 10.86 5.467 10.838 5.21 10.807 5.135 10.805 4.978 10.826M18.938 15.05C18.709 15.113 18.479 15.226 18.369 15.329 18.303 15.39 18.25 15.45 18.25 15.463 18.25 15.476 18.208 15.554 18.157 15.637 18.065 15.786 18.064 15.79 18.064 16.053 18.064 16.296 18.069 16.327 18.128 16.415 18.163 16.469 18.211 16.554 18.235 16.604 18.276 16.689 18.434 16.842 18.575 16.931 18.609 16.953 18.726 16.988 18.834 17.01 19.122 17.069 21.932 17.069 22.265 17.011 22.388 16.99 22.512 16.956 22.543 16.936 22.638 16.874 22.925 16.596 22.925 16.566 22.925 16.55 22.959 16.47 23 16.387 23.062 16.262 23.075 16.207 23.075 16.056 23.075 15.895 23.063 15.849 22.973 15.659 22.86 15.42 22.68 15.224 22.525 15.173 22.477 15.157 22.387 15.12 22.325 15.091 22.214 15.038 22.187 15.037 20.613 15.033 19.733 15.031 18.979 15.039 18.938 15.05M15.825 18.072C15.777 18.083 15.682 18.127 15.614 18.171 15.546 18.214 15.479 18.25 15.465 18.25 15.451 18.25 15.39 18.303 15.329 18.369 15.218 18.488 15.096 18.746 15.049 18.963 15.02 19.094 15.021 22.033 15.049 22.163 15.139 22.57 15.311 22.801 15.649 22.968 15.841 23.062 15.881 23.073 16.05 23.074 16.209 23.075 16.26 23.064 16.387 23 16.47 22.959 16.55 22.925 16.566 22.925 16.596 22.925 16.876 22.636 16.936 22.543 16.955 22.512 16.989 22.393 17.011 22.279 17.044 22.103 17.05 21.827 17.05 20.563 17.05 18.701 17.05 18.701 16.793 18.395 16.739 18.331 16.648 18.254 16.591 18.226 16.534 18.197 16.452 18.151 16.408 18.123 16.32 18.067 15.981 18.037 15.825 18.072" stroke="none" fill="#fff" fill-rule="evenodd"/>
</svg>